{"glyphs":{":":{"x_min":0,"x_max":248,"ha":248,"o":"m 124 76 q 143 76 156 63 q 169 50 169 31 q 169 13 156 -1 q 142 -14 124 -14 q 106 -14 93 0 q 79 13 79 31 q 79 49 92 63 q 105 76 124 76 z m 124 319 q 143 319 156 306 q 169 293 169 274 q 169 255 156 242 q 142 229 124 229 q 106 229 93 242 q 79 256 79 274 q 79 292 92 306 q 105 319 124 319 z"},"$":{"x_min":0,"x_max":495,"ha":495,"o":"m 271 274 l 271 53 q 313 55 342 84 q 370 114 370 157 q 370 197 346 225 q 323 252 271 274 z m 227 550 q 189 549 165 526 q 140 502 140 468 q 140 438 162 416 q 184 393 227 376 z m 227 662 l 271 662 l 271 592 q 308 589 342 577 q 375 565 411 542 l 377 487 q 349 508 322 523 q 295 537 271 544 l 271 359 q 354 326 389 287 q 425 248 425 191 q 425 126 380 72 q 336 18 271 5 l 271 -74 l 227 -74 l 227 1 q 172 2 127 24 q 82 45 49 86 l 94 136 q 125 100 158 80 q 191 61 227 56 l 227 292 q 154 320 122 355 q 90 391 90 444 q 90 502 127 542 q 165 582 227 590 z"},"?":{"x_min":0,"x_max":421,"ha":421,"o":"m 201 76 q 220 76 233 63 q 246 50 246 31 q 246 13 233 -1 q 219 -14 201 -14 q 183 -14 169 0 q 156 13 156 31 q 156 49 169 63 q 183 76 201 76 z m 223 202 l 169 202 l 169 231 q 169 279 178 311 q 187 343 207 375 q 218 392 242 422 q 301 496 301 554 q 301 603 276 630 q 251 657 207 657 q 166 657 138 631 q 110 604 110 566 q 110 549 115 531 q 121 514 135 490 l 67 459 q 53 479 46 502 q 39 524 39 546 q 39 606 95 650 q 150 694 230 694 q 296 694 341 654 q 386 614 386 554 q 386 495 303 405 q 282 382 271 369 q 244 338 233 308 q 223 278 223 225 z"},"<":{"x_min":0,"x_max":833,"ha":833,"o":"m 704 559 l 704 497 l 216 298 l 704 100 l 704 37 l 129 273 l 129 323 z"},"'":{"x_min":0,"x_max":170,"ha":170,"o":"m 93 422 l 77 422 l 45 645 q 44 649 44 653 q 44 657 44 664 q 44 688 54 701 q 65 714 85 714 q 105 714 116 701 q 127 688 127 665 q 127 661 125 648 q 125 646 125 645 z"},"=":{"x_min":0,"x_max":833,"ha":833,"o":"m 124 233 l 709 233 l 709 176 l 124 176 z m 124 420 l 709 420 l 709 363 l 124 363 z"},"a":{"x_min":0,"x_max":509,"ha":509,"o":"m 343 270 q 315 273 301 274 q 286 275 276 275 q 199 275 158 244 q 117 212 117 154 q 117 102 146 70 q 175 38 222 38 q 276 38 310 76 q 343 113 343 177 z m 115 488 l 147 481 l 139 440 q 168 463 201 475 q 233 486 270 486 q 345 486 379 444 q 414 402 414 312 l 414 36 l 468 36 l 468 0 l 350 0 l 343 62 q 312 24 273 5 q 235 -14 189 -14 q 125 -14 81 32 q 36 79 36 148 q 36 224 97 267 q 158 310 266 310 q 282 310 301 309 q 320 308 343 305 l 343 346 q 343 394 319 420 q 295 447 254 447 q 207 447 171 422 q 136 397 117 349 l 84 358 z"},"L":{"x_min":0,"x_max":519,"ha":519,"o":"m 46 681 l 264 681 l 264 641 l 187 641 l 187 44 l 283 44 q 354 44 400 76 q 446 108 477 179 l 505 169 l 445 -28 l 409 -28 l 413 0 l 46 0 l 46 39 l 111 39 l 111 641 l 46 641 z"},"3":{"x_min":0,"x_max":495,"ha":495,"o":"m 323 528 l 191 528 q 160 528 142 516 q 123 504 100 467 l 66 480 l 106 620 l 144 612 l 146 593 l 327 593 q 339 593 346 594 q 353 595 360 597 l 392 542 l 239 393 q 241 393 244 394 q 247 394 248 394 q 330 394 382 345 q 433 296 433 220 q 433 123 362 54 q 292 -14 191 -14 q 145 -14 102 5 q 59 24 30 58 l 81 111 q 115 73 152 54 q 189 35 231 35 q 291 35 325 75 q 360 114 360 183 q 360 250 321 296 q 282 342 226 342 q 209 342 195 338 q 180 335 162 327 l 144 352 z"},";":{"x_min":0,"x_max":248,"ha":248,"o":"m 94 -86 l 81 -64 q 103 -51 114 -36 q 125 -22 127 -3 l 122 -3 l 113 -3 q 97 -3 86 9 q 75 21 75 38 q 75 57 89 70 q 102 83 121 83 q 142 83 156 66 q 170 50 170 24 q 170 -10 150 -40 q 129 -69 94 -86 z m 124 319 q 143 319 156 306 q 169 293 169 274 q 169 255 156 242 q 142 229 124 229 q 106 229 93 242 q 79 256 79 274 q 79 292 92 306 q 105 319 124 319 z"},"J":{"x_min":0,"x_max":324,"ha":324,"o":"m 86 681 l 292 681 l 292 641 l 227 641 l 227 152 q 227 67 198 26 q 168 -14 106 -14 q 78 -14 56 -8 q 34 -1 17 11 l 17 72 q 36 58 54 51 q 71 44 87 44 q 122 44 136 60 q 150 76 150 121 l 150 641 l 86 641 z"},"V":{"x_min":0,"x_max":602,"ha":602,"o":"m 519 630 q 497 615 480 609 q 463 603 446 603 q 429 603 392 613 q 355 622 335 622 q 293 622 254 590 q 214 559 169 488 l 320 68 z m 568 688 l 587 670 q 573 651 552 590 q 548 581 547 577 l 385 121 q 383 115 379 104 q 355 38 350 0 l 259 0 q 254 25 247 52 q 240 79 229 108 l 37 641 l -18 641 l -18 681 l 171 681 l 171 641 l 116 641 l 156 528 q 206 611 257 649 q 309 688 371 688 q 392 688 437 681 q 482 674 506 674 q 527 674 543 677 q 558 681 568 688 z"},"\"":{"x_min":0,"x_max":331,"ha":331,"o":"m 253 422 l 238 422 l 206 645 q 206 646 206 648 q 204 659 204 664 q 204 688 215 701 q 226 714 246 714 q 266 714 276 701 q 287 688 287 665 q 287 658 287 654 q 287 649 286 645 z m 93 422 l 77 422 l 46 645 q 45 653 44 658 q 44 662 44 665 q 44 688 55 701 q 65 714 85 714 q 105 714 116 701 q 127 688 127 665 q 127 661 125 648 q 125 646 125 645 z"},"7":{"x_min":0,"x_max":495,"ha":495,"o":"m 104 620 l 134 615 l 136 593 l 417 593 l 441 535 q 341 423 295 302 q 249 181 249 30 l 249 0 l 172 0 l 172 12 q 172 156 224 281 q 276 407 385 525 l 191 525 q 151 525 134 513 q 117 501 107 468 l 70 476 z"},"S":{"x_min":0,"x_max":549,"ha":549,"o":"m 458 643 l 483 670 l 508 651 l 443 569 q 396 611 354 630 q 312 649 269 649 q 212 649 174 617 q 136 585 136 539 q 136 476 284 415 l 291 412 l 299 409 q 487 333 487 215 q 487 124 415 55 q 342 -14 242 -14 q 183 -14 123 13 q 64 40 13 90 l 75 153 q 121 97 174 68 q 226 38 278 38 q 341 38 385 78 q 429 117 429 174 q 429 224 397 258 q 365 292 274 328 l 270 330 q 81 404 81 503 q 81 583 143 638 q 204 694 294 694 q 333 694 375 681 q 417 668 458 643 z"},"}":{"x_min":0,"x_max":500,"ha":500,"o":"m 87 740 l 92 740 q 197 740 237 704 q 277 668 277 571 l 277 467 q 277 390 305 361 q 333 333 414 325 l 414 296 q 334 290 306 260 q 277 231 277 154 l 277 50 q 277 -47 237 -83 q 197 -119 92 -119 l 87 -119 l 87 -94 q 157 -93 182 -68 q 207 -42 207 34 l 207 104 q 207 214 237 255 q 267 295 347 310 q 267 325 237 365 q 207 406 207 516 l 207 586 q 207 662 182 688 q 156 714 87 715 z"},"Z":{"x_min":0,"x_max":523,"ha":523,"o":"m 76 706 l 122 706 l 120 681 l 449 681 l 488 628 l 488 620 q 475 606 457 583 l 456 581 l 92 69 l 315 69 q 375 69 406 92 q 437 115 451 168 l 492 168 l 467 -28 l 425 -28 l 424 0 l 146 0 q 114 0 95 -1 q 76 -2 59 -5 l 17 56 q 31 67 51 91 q 72 116 98 153 l 425 611 l 218 611 q 169 611 141 591 q 113 571 98 526 l 58 526 z"},"x":{"x_min":0,"x_max":481,"ha":481,"o":"m 30 472 l 215 472 l 215 436 l 156 436 l 252 280 l 362 436 l 293 436 l 293 472 l 451 472 l 451 436 l 405 436 l 272 248 l 408 36 l 465 36 l 465 0 l 268 0 l 268 36 l 327 36 l 229 189 l 119 36 l 179 36 l 179 0 l 16 0 l 16 36 l 76 36 l 209 220 l 75 436 l 30 436 z"},")":{"x_min":0,"x_max":296,"ha":296,"o":"m 56 694 q 146 607 190 503 q 235 398 235 278 q 235 158 190 54 q 146 -50 56 -137 l 25 -107 q 90 -19 122 76 q 154 171 154 278 q 154 385 122 480 q 90 576 25 664 z"},"&":{"x_min":0,"x_max":683,"ha":683,"o":"m 204 369 q 146 338 118 299 q 90 260 90 211 q 90 143 138 95 q 186 48 255 48 q 289 48 323 61 q 356 73 386 97 q 336 152 292 217 q 249 282 204 369 z m 273 401 q 310 330 353 267 q 396 204 442 153 q 479 197 498 238 q 517 278 517 310 q 517 334 501 348 q 485 362 458 362 l 453 362 l 453 399 l 627 399 l 627 362 l 566 362 q 563 302 539 243 q 514 184 467 125 q 509 83 535 67 q 562 52 587 52 q 608 52 627 60 q 646 68 662 83 l 683 60 q 649 21 618 3 q 587 -14 553 -14 q 521 -14 489 3 q 458 21 412 67 q 366 26 317 6 q 269 -14 217 -14 q 134 -14 75 43 q 17 101 17 183 q 17 251 62 307 q 107 364 193 404 q 182 431 177 457 q 171 482 171 506 q 171 581 226 637 q 281 694 353 694 q 404 694 437 664 q 469 634 469 588 q 469 537 427 495 q 384 454 273 401 z m 260 433 q 339 473 375 508 q 410 542 410 579 q 410 611 389 633 q 368 654 337 654 q 293 654 265 620 q 237 585 237 533 q 237 512 242 487 q 248 463 260 433 z"},"_":{"x_min":0,"x_max":500,"ha":500,"o":"m 0 -178 l 500 -178 l 500 -236 l 0 -236 z"},"v":{"x_min":0,"x_max":505,"ha":505,"o":"m 429 408 q 419 404 410 403 q 401 401 391 401 q 369 401 321 415 q 272 428 248 428 q 223 428 198 416 q 173 404 141 376 l 277 49 z m 106 486 q 111 460 116 442 q 121 424 127 409 q 176 451 211 469 q 245 486 278 486 q 303 486 351 475 q 399 464 419 464 q 433 464 444 468 q 456 472 474 483 l 496 462 q 480 441 462 398 l 461 395 l 323 69 q 318 58 313 42 q 308 25 301 0 l 220 0 q 217 13 213 26 q 208 40 197 66 l 46 422 l -2 402 l -14 433 z"},"O":{"x_min":0,"x_max":810,"ha":810,"o":"m 405 657 q 281 657 200 574 q 120 490 120 360 q 120 220 206 121 q 292 23 412 23 q 530 23 610 108 q 690 193 690 321 q 690 459 605 558 q 520 657 405 657 z m 405 694 q 563 694 667 594 q 771 494 771 340 q 771 186 667 86 q 563 -14 405 -14 q 247 -14 143 86 q 39 186 39 340 q 39 494 143 594 q 247 694 405 694 z"},"(":{"x_min":0,"x_max":296,"ha":296,"o":"m 241 694 l 271 664 q 206 576 174 480 q 142 385 142 279 q 142 172 174 76 q 206 -20 271 -107 l 241 -137 q 151 -50 106 54 q 61 158 61 279 q 61 399 106 503 q 151 606 241 694 z"},"C":{"x_min":0,"x_max":630,"ha":630,"o":"m 555 617 l 586 644 l 613 616 l 481 492 l 452 521 q 465 533 472 546 q 478 559 478 575 q 478 608 443 633 q 408 658 358 658 q 251 658 179 575 q 107 493 107 367 q 107 232 186 142 q 265 52 382 52 q 436 52 486 73 q 536 95 584 140 l 611 110 q 561 50 494 18 q 427 -14 354 -14 q 217 -14 128 83 q 39 180 39 331 q 39 485 132 590 q 226 695 361 695 q 417 695 466 675 q 515 656 555 617 z"},"W":{"x_min":0,"x_max":852,"ha":852,"o":"m 770 630 q 748 615 731 609 q 714 603 697 603 q 680 603 644 613 q 607 622 587 622 q 547 622 509 593 q 470 563 427 499 l 571 68 z m 819 688 l 838 661 q 819 641 802 588 q 799 581 798 577 l 637 121 q 635 115 631 104 q 607 38 602 0 l 515 0 q 511 24 504 49 q 497 74 485 108 l 430 267 l 378 121 q 377 118 374 110 q 349 42 343 0 l 254 0 q 247 41 226 104 l 224 108 l 41 641 l -14 641 l -14 681 l 169 681 l 169 641 l 119 641 l 315 68 l 409 330 l 305 641 l 258 641 l 258 681 l 422 681 l 422 641 l 381 641 l 413 537 q 459 614 510 651 q 562 688 622 688 q 643 688 689 681 q 735 674 758 674 q 779 674 794 677 q 809 681 819 688 z"},"A":{"x_min":0,"x_max":616,"ha":616,"o":"m 290 623 l 156 257 l 418 257 z m 264 681 l 348 681 l 575 39 l 627 39 l 627 0 l 428 0 l 428 39 l 494 39 l 433 213 l 140 213 l 77 39 l 137 39 l 137 0 l -19 0 l -19 39 l 30 39 z"},"f":{"x_min":0,"x_max":287,"ha":287,"o":"m 304 669 l 273 627 q 260 640 244 646 q 228 653 211 653 q 175 653 151 630 q 128 608 128 573 q 128 528 164 496 q 199 464 250 464 l 280 464 l 266 418 l 171 418 l 171 36 l 245 36 l 245 0 l 46 0 l 46 36 l 100 36 l 100 418 l 30 418 l 44 464 l 104 464 q 86 483 77 506 q 68 529 68 555 q 68 606 117 650 q 167 694 226 694 q 247 694 267 688 q 287 681 304 669 z"},"Q":{"x_min":0,"x_max":810,"ha":810,"o":"m 430 -13 q 458 -23 527 -59 q 595 -95 636 -95 q 652 -95 673 -87 q 694 -80 720 -64 l 736 -85 q 704 -117 667 -134 q 630 -151 592 -151 q 557 -151 524 -140 q 492 -130 444 -99 l 438 -95 q 353 -43 305 -43 q 280 -43 244 -53 q 208 -63 161 -83 l 128 -50 q 166 -45 224 -25 q 282 -5 305 -3 q 177 36 108 125 q 39 214 39 340 q 39 494 143 594 q 247 694 405 694 q 563 694 667 594 q 771 494 771 340 q 771 193 677 95 q 583 -2 430 -13 z m 405 657 q 281 657 200 574 q 120 490 120 360 q 120 220 206 121 q 292 23 412 23 q 530 23 610 108 q 690 193 690 321 q 690 459 605 558 q 520 657 405 657 z"},"w":{"x_min":0,"x_max":741,"ha":741,"o":"m 650 408 q 641 404 632 403 q 623 401 614 401 q 592 401 543 415 q 494 428 470 428 q 445 428 421 417 q 396 405 370 381 l 507 49 z m 106 486 q 110 465 115 445 q 120 426 127 409 l 272 49 l 357 240 l 282 422 l 234 402 l 222 433 l 329 486 q 334 470 342 453 q 349 436 358 414 q 406 454 438 470 q 469 486 498 486 q 522 486 568 474 q 614 463 634 463 q 651 463 666 468 q 680 473 694 483 l 714 462 q 701 442 686 404 q 683 398 682 395 l 554 69 q 548 55 543 38 q 539 21 534 0 l 456 0 q 454 12 449 26 q 444 40 433 66 l 376 197 l 319 69 q 315 60 310 44 q 305 28 297 0 l 220 0 q 217 13 213 26 q 208 40 197 66 l 46 422 l -2 402 l -14 433 z"},"-":{"x_min":0,"x_max":315,"ha":315,"o":"m 37 273 l 278 273 l 278 208 l 37 208 z"},"E":{"x_min":0,"x_max":560,"ha":560,"o":"m 461 681 l 515 566 l 488 548 q 451 596 408 617 q 364 637 297 637 l 187 637 l 187 436 l 424 436 l 424 491 l 461 491 l 461 325 l 424 325 l 424 392 l 187 392 l 187 44 l 283 44 q 355 44 406 73 q 458 101 501 164 l 529 151 l 459 -5 q 447 -2 434 -1 q 420 0 394 0 l 46 0 l 46 39 l 111 39 l 111 641 l 46 641 l 46 681 z"},"s":{"x_min":0,"x_max":375,"ha":375,"o":"m 327 444 l 294 393 q 261 420 232 434 q 203 448 177 448 q 146 448 125 430 q 105 412 105 384 q 105 340 195 301 q 219 290 232 284 q 292 255 317 224 q 341 193 341 145 q 341 83 290 35 q 239 -14 168 -14 q 124 -14 82 5 q 41 24 9 59 l 59 117 q 103 74 137 53 q 172 33 204 33 q 239 33 262 56 q 285 80 285 115 q 285 147 266 170 q 247 192 184 221 l 182 222 q 52 283 52 361 q 52 415 92 450 q 133 486 194 486 q 228 486 261 476 q 293 465 327 444 z"},">":{"x_min":0,"x_max":833,"ha":833,"o":"m 129 559 l 704 323 l 704 273 l 129 37 l 129 100 l 617 298 l 129 497 z"},"l":{"x_min":0,"x_max":262,"ha":262,"o":"m 215 690 l 215 653 l 167 635 l 167 36 l 220 36 l 220 0 l 42 0 l 42 36 l 95 36 l 95 609 l 42 591 l 42 628 z"},"8":{"x_min":0,"x_max":495,"ha":495,"o":"m 220 313 q 168 281 143 246 q 117 211 117 173 q 117 121 164 82 q 210 43 272 43 q 326 43 360 73 q 393 102 393 150 q 393 196 351 236 q 308 276 220 313 z m 312 345 q 382 311 414 271 q 446 230 446 177 q 446 100 384 43 q 322 -14 241 -14 q 156 -14 103 31 q 50 77 50 150 q 50 205 84 250 q 118 295 186 332 q 135 355 110 386 q 85 417 85 456 q 85 518 137 562 q 188 606 263 606 q 327 606 373 568 q 419 531 419 479 q 419 438 393 405 q 368 373 312 345 z m 276 367 q 318 385 339 408 q 359 431 359 460 q 359 500 323 531 q 287 561 239 561 q 197 561 171 540 q 145 519 145 484 q 145 449 177 420 q 209 392 276 367 z"},"\\":{"x_min":0,"x_max":278,"ha":278,"o":"m -24 694 l 30 694 l 302 -93 l 248 -93 z"},"e":{"x_min":0,"x_max":500,"ha":500,"o":"m 414 293 l 112 210 q 126 135 172 94 q 218 53 287 53 q 329 53 367 69 q 406 85 440 117 l 463 93 q 419 40 367 13 q 314 -14 253 -14 q 158 -14 98 55 q 37 124 37 231 q 37 340 104 413 q 171 486 269 486 q 312 486 350 467 q 388 449 416 414 q 437 389 450 357 q 464 326 464 310 q 464 303 440 299 q 423 295 414 293 z m 391 323 q 370 384 335 416 q 301 448 255 448 q 188 448 146 399 q 104 350 104 271 q 104 267 104 260 q 105 253 106 244 z"},"b":{"x_min":0,"x_max":528,"ha":528,"o":"m 150 170 q 150 93 176 57 q 203 22 260 22 q 329 22 373 80 q 416 139 416 234 q 416 321 374 377 q 331 434 266 434 q 236 434 208 423 q 180 411 150 386 z m 199 690 l 199 653 l 150 635 l 150 428 q 193 458 231 472 q 269 486 303 486 q 384 486 438 422 q 491 358 491 259 q 491 144 421 65 q 350 -14 249 -14 q 202 -14 156 4 q 109 23 79 54 l 79 609 l 25 591 l 25 628 z"},"%":{"x_min":0,"x_max":662,"ha":662,"o":"m 584 130 q 584 193 552 240 q 520 286 477 286 q 445 286 427 262 q 408 237 408 194 q 408 131 440 84 q 472 37 514 37 q 546 37 565 62 q 584 87 584 130 z m 496 337 q 552 337 588 288 q 624 239 624 161 q 624 83 588 34 q 552 -14 496 -14 q 440 -14 405 34 q 369 83 369 161 q 369 240 405 288 q 440 337 496 337 z m 253 399 q 253 462 221 509 q 189 555 147 555 q 115 555 96 531 q 78 506 78 463 q 78 400 110 353 q 142 306 184 306 q 216 306 234 331 q 253 355 253 399 z m 481 606 l 526 606 l 182 -14 l 137 -14 z m 166 606 q 222 606 258 558 q 293 509 293 431 q 293 353 257 304 q 222 255 166 255 q 110 255 74 304 q 38 353 38 431 q 38 509 74 558 q 109 606 166 606 z"},"m":{"x_min":0,"x_max":870,"ha":870,"o":"m 163 481 l 169 481 l 171 405 q 222 446 264 466 q 307 486 343 486 q 383 486 417 463 q 450 440 464 403 q 516 445 558 466 q 601 486 638 486 q 700 486 737 448 q 775 409 775 345 l 775 36 l 829 36 l 829 0 l 650 0 l 650 36 l 704 36 l 704 344 q 704 385 682 407 q 659 428 616 428 q 583 428 545 410 q 508 393 473 361 l 473 36 l 527 36 l 527 0 l 348 0 l 348 36 l 402 36 l 402 344 q 402 385 379 407 q 357 428 314 428 q 281 428 243 410 q 206 393 171 361 l 171 36 l 225 36 l 225 0 l 46 0 l 46 36 l 100 36 l 100 422 l 46 405 l 46 442 z"},"#":{"x_min":0,"x_max":769,"ha":769,"o":"m 342 424 l 293 284 l 434 284 l 484 424 z m 380 711 l 445 711 l 363 481 l 503 481 l 585 711 l 649 711 l 568 481 l 718 481 l 698 424 l 547 424 l 498 284 l 660 284 l 639 228 l 478 228 l 397 -1 l 332 -1 l 413 228 l 273 228 l 192 -1 l 128 -1 l 209 228 l 51 228 l 72 284 l 229 284 l 278 424 l 108 424 l 129 481 l 299 481 z"},",":{"x_min":0,"x_max":248,"ha":248,"o":"m 94 -86 l 81 -64 q 103 -51 114 -36 q 125 -22 127 -3 l 122 -3 l 113 -3 q 97 -3 86 9 q 75 21 75 38 q 75 57 89 70 q 102 83 121 83 q 142 83 156 66 q 170 50 170 24 q 170 -10 150 -40 q 129 -69 94 -86 z"},"n":{"x_min":0,"x_max":576,"ha":576,"o":"m 481 345 l 481 36 l 535 36 l 535 0 l 356 0 l 356 36 l 410 36 l 410 344 q 410 385 387 407 q 363 428 319 428 q 284 428 245 410 q 206 393 171 361 l 171 36 l 225 36 l 225 0 l 46 0 l 46 36 l 100 36 l 100 422 l 46 405 l 46 442 l 163 481 l 169 481 l 171 405 q 222 446 265 466 q 308 486 344 486 q 406 486 443 448 q 481 409 481 345 z"},"h":{"x_min":0,"x_max":572,"ha":572,"o":"m 215 690 l 215 653 l 167 635 l 167 405 q 218 446 261 466 q 304 486 340 486 q 402 486 439 448 q 477 409 477 345 l 477 36 l 530 36 l 530 0 l 352 0 l 352 36 l 405 36 l 405 344 q 405 385 382 407 q 358 428 314 428 q 279 428 240 411 q 202 393 167 361 l 167 36 l 220 36 l 220 0 l 42 0 l 42 36 l 95 36 l 95 609 l 42 591 l 42 628 z"},"z":{"x_min":0,"x_max":407,"ha":407,"o":"m 76 502 l 113 502 l 114 472 l 344 472 l 372 427 q 361 416 342 391 q 337 385 334 381 l 97 74 l 250 74 q 290 74 313 90 q 336 105 346 139 l 379 139 l 341 -30 l 305 -30 l 306 0 l 51 0 l 18 48 l 299 410 l 175 410 q 134 410 114 398 q 93 386 76 353 l 42 356 z"},"B":{"x_min":0,"x_max":562,"ha":562,"o":"m 187 397 l 187 44 l 277 44 q 362 44 409 91 q 457 138 457 220 q 457 300 409 348 q 360 397 281 397 z m 187 441 l 241 441 q 301 441 334 468 q 366 494 366 543 q 366 590 332 614 q 297 637 228 637 l 187 637 z m 332 429 q 432 419 486 367 q 540 314 540 227 q 540 127 473 63 q 406 0 300 0 l 46 0 l 46 39 l 111 39 l 111 641 l 46 641 l 46 681 l 246 681 q 339 681 388 648 q 437 616 437 554 q 437 508 410 477 q 384 445 332 429 z"},"K":{"x_min":0,"x_max":602,"ha":602,"o":"m 46 681 l 252 681 l 252 641 l 187 641 l 187 350 l 462 641 l 394 641 l 394 681 l 566 681 l 566 641 l 521 641 l 313 420 l 543 39 l 602 39 l 602 0 l 391 0 l 391 39 l 457 39 l 261 365 l 187 287 l 187 39 l 252 39 l 252 0 l 46 0 l 46 39 l 111 39 l 111 641 l 46 641 z"},"R":{"x_min":0,"x_max":639,"ha":639,"o":"m 187 637 l 187 248 l 271 248 q 382 248 441 299 q 499 349 499 445 q 499 539 442 588 q 384 637 275 637 z m 46 681 l 279 681 q 423 681 502 619 q 580 557 580 443 q 580 352 518 291 q 456 229 348 213 l 524 39 l 581 39 l 581 0 l 459 0 l 255 204 l 187 204 l 187 39 l 252 39 l 252 0 l 46 0 l 46 39 l 111 39 l 111 641 l 46 641 z"},"T":{"x_min":0,"x_max":532,"ha":532,"o":"m 66 704 l 104 704 l 100 681 l 432 681 l 428 704 l 467 704 l 501 530 l 462 530 q 448 588 419 613 q 391 637 336 637 l 304 637 l 304 39 l 369 39 l 369 0 l 163 0 l 163 39 l 228 39 l 228 637 l 196 637 q 141 637 113 613 q 84 588 70 530 l 31 530 z"},"P":{"x_min":0,"x_max":574,"ha":574,"o":"m 187 637 l 187 337 q 187 271 209 244 q 232 217 284 217 q 361 217 410 275 q 459 333 459 425 q 459 525 401 581 q 344 637 239 637 z m 46 681 l 263 681 q 395 681 468 615 q 542 549 542 431 q 542 323 470 251 q 398 179 291 179 q 262 179 236 183 q 209 188 187 196 l 187 39 l 259 39 l 259 0 l 46 0 l 46 39 l 111 39 l 111 641 l 46 641 z"},"|":{"x_min":0,"x_max":500,"ha":500,"o":"m 219 764 l 281 764 l 281 -236 l 219 -236 z"},"t":{"x_min":0,"x_max":303,"ha":303,"o":"m 147 571 l 167 565 l 167 468 l 269 468 q 270 466 270 463 q 270 461 270 456 q 270 438 261 429 q 252 421 233 421 l 167 421 l 167 106 q 167 68 178 51 q 189 34 214 34 q 227 34 240 39 q 253 43 271 55 l 286 31 q 261 10 231 -2 q 202 -14 174 -14 q 131 -14 113 9 q 95 32 95 90 l 95 421 l 38 421 l 38 445 q 77 468 104 499 q 131 530 147 571 z"},"M":{"x_min":0,"x_max":792,"ha":792,"o":"m 90 681 l 219 681 l 390 123 l 586 681 l 707 681 l 707 641 l 648 641 l 711 39 l 765 39 l 765 0 l 566 0 l 566 39 l 638 39 l 587 557 l 391 0 l 355 0 l 184 557 l 115 39 l 179 39 l 179 0 l 22 0 l 22 39 l 70 39 l 151 641 l 90 641 z"},"g":{"x_min":0,"x_max":500,"ha":500,"o":"m 113 307 q 113 231 155 179 q 196 127 256 127 q 310 127 344 167 q 379 208 379 272 q 379 349 338 400 q 296 451 235 451 q 183 451 148 411 q 113 370 113 307 z m 261 -9 q 235 -33 224 -54 q 212 -76 212 -98 q 212 -128 232 -147 q 252 -167 284 -167 q 319 -167 339 -148 q 359 -128 359 -95 q 359 -62 333 -39 q 306 -16 261 -9 z m 25 26 q 62 42 92 64 q 121 85 146 112 q 96 137 67 183 q 39 229 39 285 q 39 370 100 428 q 160 486 246 486 q 275 486 305 478 q 334 471 360 456 q 380 498 400 512 q 419 527 453 527 q 458 527 464 526 q 470 525 482 523 l 469 469 q 457 474 448 476 q 438 478 430 478 q 416 478 407 470 q 398 462 398 449 q 398 445 426 396 q 453 347 453 293 q 453 204 394 148 q 334 92 243 92 q 227 92 211 94 q 196 96 182 99 q 162 76 139 57 q 116 38 89 22 q 123 27 157 30 q 191 32 224 32 q 322 32 376 3 q 430 -27 430 -80 q 430 -129 386 -167 q 341 -204 281 -204 q 220 -204 182 -177 q 145 -150 145 -108 q 145 -80 166 -53 q 186 -27 225 -4 q 220 -4 209 -3 q 198 -3 192 -3 q 166 -3 132 -7 q 98 -12 58 -20 z"},"j":{"x_min":0,"x_max":257,"ha":257,"o":"m 167 486 l 170 486 q 168 468 168 454 q 167 439 167 428 l 167 -42 q 167 -106 129 -146 q 92 -187 17 -204 l 8 -165 q 58 -151 77 -127 q 95 -102 95 -47 l 95 422 l 42 405 l 42 442 z m 127 643 q 147 643 162 628 q 177 614 177 593 q 177 572 162 558 q 147 544 127 544 q 107 544 92 559 q 77 574 77 593 q 77 613 92 628 q 107 643 127 643 z"},"i":{"x_min":0,"x_max":269,"ha":269,"o":"m 171 486 l 175 486 q 175 482 174 474 q 171 441 171 428 l 171 36 l 225 36 l 225 0 l 46 0 l 46 36 l 100 36 l 100 422 l 46 405 l 46 442 z m 131 643 q 152 643 167 628 q 181 614 181 593 q 181 572 167 558 q 152 544 131 544 q 111 544 97 559 q 82 574 82 593 q 82 613 96 628 q 111 643 131 643 z"},"y":{"x_min":0,"x_max":505,"ha":505,"o":"m 429 408 q 419 404 410 403 q 401 401 391 401 q 369 401 321 415 q 272 428 248 428 q 222 428 196 416 q 169 403 144 378 l 279 91 z m 100 486 q 106 469 113 450 q 121 431 130 410 q 176 451 210 469 q 245 486 278 486 q 303 486 351 475 q 399 464 419 464 q 433 464 444 468 q 456 472 474 483 l 496 462 q 478 434 461 396 l 461 395 l 224 -106 q 201 -156 171 -180 q 142 -204 104 -204 q 87 -204 71 -199 q 55 -193 43 -184 l 69 -110 q 89 -117 100 -120 q 111 -122 121 -122 q 147 -122 170 -104 q 192 -85 210 -50 l 241 12 l 46 422 l -2 402 l -14 433 z"},"@":{"x_min":0,"x_max":986,"ha":986,"o":"m 581 164 q 551 112 513 87 q 476 61 430 61 q 369 61 332 106 q 295 151 295 225 q 295 278 319 331 q 343 383 386 425 q 418 456 457 474 q 495 491 532 491 q 575 491 602 467 q 629 443 640 396 l 666 484 l 736 484 l 653 186 q 653 185 652 184 q 644 155 644 133 q 644 110 656 96 q 669 83 690 83 q 707 83 729 92 q 750 100 770 115 q 830 159 861 228 q 893 297 893 382 q 893 450 869 505 q 844 560 794 604 q 750 643 688 664 q 627 685 558 685 q 467 685 391 656 q 316 628 257 571 q 193 509 161 427 q 128 346 128 247 q 128 162 156 98 q 184 35 244 -16 q 300 -63 372 -88 q 443 -112 528 -112 q 607 -112 683 -86 q 758 -61 827 -11 l 842 -29 q 770 -83 689 -110 q 608 -137 522 -137 q 431 -137 355 -115 q 279 -92 221 -47 q 147 8 109 87 q 71 166 71 262 q 71 362 113 448 q 155 535 235 601 q 299 655 377 682 q 455 709 545 709 q 714 709 815 618 q 916 526 916 374 q 916 297 888 229 q 859 161 808 114 q 780 88 748 75 q 715 61 682 61 q 635 61 609 87 q 584 112 581 164 z m 536 471 q 510 471 488 456 q 466 441 443 407 q 408 354 387 293 q 366 231 366 183 q 366 138 386 111 q 406 85 439 85 q 471 85 500 107 q 530 128 557 172 q 585 218 602 271 q 618 324 618 367 q 618 413 595 442 q 572 471 536 471 z"},".":{"x_min":0,"x_max":248,"ha":248,"o":"m 124 76 q 143 76 156 63 q 169 50 169 31 q 169 13 156 -1 q 142 -14 124 -14 q 106 -14 93 0 q 79 13 79 31 q 79 49 92 63 q 105 76 124 76 z"},"p":{"x_min":0,"x_max":562,"ha":562,"o":"m 167 26 l 167 -161 l 220 -161 l 220 -197 l 42 -197 l 42 -161 l 95 -161 l 95 422 l 42 405 l 42 442 l 159 481 l 164 481 l 167 425 q 211 457 250 471 q 288 486 325 486 q 410 486 467 417 q 525 348 525 243 q 525 132 462 59 q 398 -14 306 -14 q 267 -14 233 -4 q 199 6 167 26 z m 167 168 q 167 91 196 56 q 225 22 288 22 q 361 22 403 78 q 445 134 445 233 q 445 324 403 383 q 362 442 300 442 q 268 442 237 428 q 207 414 167 381 z"},"X":{"x_min":0,"x_max":565,"ha":565,"o":"m 19 681 l 219 681 l 219 641 l 152 641 l 293 403 l 444 641 l 388 641 l 388 681 l 543 681 l 543 641 l 497 641 l 317 360 l 510 39 l 558 39 l 558 0 l 362 0 l 362 39 l 425 39 l 273 291 l 113 39 l 179 39 l 179 0 l 6 0 l 6 39 l 61 39 l 249 334 l 66 641 l 19 641 z"},"*":{"x_min":0,"x_max":500,"ha":500,"o":"m 221 681 l 278 681 l 265 504 l 426 577 l 446 512 l 276 475 l 393 345 l 339 305 l 250 455 l 162 305 l 107 345 l 224 474 l 54 513 l 75 577 l 235 503 z"},"Y":{"x_min":0,"x_max":581,"ha":581,"o":"m -11 681 l 187 681 l 187 641 l 127 641 l 311 294 l 476 641 l 426 641 l 426 681 l 570 681 l 570 641 l 525 641 l 248 60 q 262 67 276 71 q 290 75 303 75 q 319 75 343 67 q 367 59 378 59 q 394 59 407 66 q 421 73 435 89 l 457 75 q 428 26 403 6 q 377 -14 347 -14 q 324 -14 286 0 q 249 13 237 13 q 227 13 218 9 q 208 4 200 -5 l 175 10 l 273 216 l 43 641 l -11 641 z"},"c":{"x_min":0,"x_max":491,"ha":491,"o":"m 445 411 l 393 358 q 364 400 329 422 q 293 444 254 444 q 187 444 144 394 q 100 344 100 266 q 100 174 155 109 q 209 44 285 44 q 323 44 361 61 q 398 77 429 107 l 450 84 q 415 37 365 11 q 315 -14 257 -14 q 158 -14 97 51 q 37 116 37 224 q 37 334 107 410 q 176 486 276 486 q 325 486 366 468 q 407 450 445 411 z"},"!":{"x_min":0,"x_max":264,"ha":264,"o":"m 132 76 q 151 76 164 63 q 177 50 177 31 q 177 13 164 -1 q 150 -14 132 -14 q 114 -14 100 0 q 87 13 87 31 q 87 49 100 63 q 114 76 132 76 z m 151 201 l 113 201 q 113 335 99 473 q 86 612 86 618 q 86 655 98 674 q 110 694 132 694 q 155 694 167 674 q 178 653 178 612 q 178 610 165 474 q 151 337 151 201 z"},"/":{"x_min":0,"x_max":278,"ha":278,"o":"m 248 694 l 302 694 l 30 -93 l -24 -93 z"},"[":{"x_min":0,"x_max":296,"ha":296,"o":"m 100 681 l 273 681 l 273 646 l 171 646 l 171 -102 l 273 -102 l 273 -137 l 100 -137 z"},"6":{"x_min":0,"x_max":495,"ha":495,"o":"m 251 363 q 192 363 155 322 q 118 282 118 215 q 118 133 160 79 q 201 24 262 24 q 317 24 350 67 q 384 109 384 181 q 384 257 344 310 q 305 363 251 363 z m 421 566 l 384 516 q 354 539 329 550 q 303 560 278 560 q 212 560 167 496 q 121 433 109 322 q 143 367 185 390 q 226 414 271 414 q 351 414 403 359 q 456 304 456 220 q 456 126 395 56 q 334 -14 254 -14 q 157 -14 98 58 q 39 131 39 252 q 39 398 118 503 q 198 607 304 607 q 334 607 364 596 q 395 586 421 566 z"},"r":{"x_min":0,"x_max":370,"ha":370,"o":"m 341 486 l 368 472 l 308 375 q 288 395 271 404 q 254 413 236 413 q 205 413 188 390 q 171 367 171 324 l 171 36 l 234 36 l 234 0 l 46 0 l 46 36 l 100 36 l 100 360 q 100 382 96 390 q 91 398 79 404 l 56 375 l 27 395 l 91 486 q 124 468 141 450 q 158 433 165 409 q 183 451 202 468 q 222 486 247 486 q 263 486 281 479 q 299 473 320 459 z"},"2":{"x_min":0,"x_max":495,"ha":495,"o":"m 135 69 l 306 69 q 352 69 370 81 q 387 94 400 127 l 433 127 l 401 -28 l 367 -28 l 366 0 l 91 0 l 64 62 q 237 185 302 261 q 367 338 367 411 q 367 476 329 519 q 291 562 234 562 q 178 562 143 528 q 109 493 109 436 q 109 378 142 345 q 175 311 232 311 l 234 311 l 234 280 q 223 277 212 275 q 202 274 192 274 q 128 274 89 314 q 49 354 49 419 q 49 495 110 551 q 170 607 255 607 q 336 607 391 557 q 446 506 446 433 q 446 351 380 271 q 314 192 135 69 z"},"{":{"x_min":0,"x_max":500,"ha":500,"o":"m 413 740 l 413 715 q 344 714 318 688 q 293 662 293 586 l 293 516 q 293 406 263 365 q 233 325 153 310 q 233 295 263 255 q 293 214 293 104 l 293 34 q 293 -42 318 -68 q 343 -93 413 -94 l 413 -119 l 408 -119 q 302 -119 263 -83 q 223 -47 223 50 l 223 154 q 223 231 194 260 q 166 290 86 296 l 86 325 q 167 333 195 361 q 223 390 223 467 l 223 571 q 223 668 263 704 q 302 740 408 740 z"},"9":{"x_min":0,"x_max":495,"ha":495,"o":"m 74 27 l 111 77 q 136 55 163 44 q 189 33 216 33 q 282 33 328 96 q 373 159 386 271 q 352 226 311 202 q 270 178 225 178 q 146 178 92 234 q 39 289 39 373 q 39 467 100 536 q 160 606 241 606 q 338 606 397 533 q 456 461 456 340 q 456 192 377 89 q 297 -14 186 -14 q 157 -14 129 -4 q 101 7 74 27 z m 231 568 q 179 568 145 526 q 111 483 111 416 q 111 336 150 282 q 190 229 249 229 q 304 229 341 271 q 377 312 377 377 q 377 459 335 514 q 293 568 231 568 z"}," ":{"x_min":0,"x_max":248,"ha":248,"o":""},"I":{"x_min":0,"x_max":299,"ha":299,"o":"m 46 681 l 252 681 l 252 641 l 187 641 l 187 39 l 252 39 l 252 0 l 46 0 l 46 39 l 111 39 l 111 641 l 46 641 z"},"H":{"x_min":0,"x_max":662,"ha":662,"o":"m 46 681 l 252 681 l 252 641 l 187 641 l 187 433 l 475 433 l 475 641 l 410 641 l 410 681 l 616 681 l 616 641 l 551 641 l 551 39 l 616 39 l 616 0 l 410 0 l 410 39 l 475 39 l 475 389 l 187 389 l 187 39 l 252 39 l 252 0 l 46 0 l 46 39 l 111 39 l 111 641 l 46 641 z"},"4":{"x_min":0,"x_max":495,"ha":495,"o":"m 303 497 l 94 204 l 303 204 z m 325 593 l 370 593 l 370 204 l 456 204 l 445 150 l 370 150 l 370 35 l 431 35 l 431 0 l 229 0 l 229 35 l 303 35 l 303 150 l 49 150 l 49 204 z"},"~":{"x_min":0,"x_max":833,"ha":833,"o":"m 747 370 l 747 306 q 698 271 651 253 q 604 236 558 236 q 537 236 514 240 q 491 245 465 253 q 450 258 422 268 q 324 303 275 303 q 234 303 190 285 q 146 267 87 225 l 87 290 q 138 326 186 343 q 233 361 276 361 q 303 361 333 355 q 362 349 418 329 q 424 327 435 323 q 515 294 559 294 q 601 294 645 312 q 689 330 747 370 z"},"D":{"x_min":0,"x_max":655,"ha":655,"o":"m 187 637 l 187 44 l 266 44 q 392 44 463 123 q 533 202 533 344 q 533 485 465 561 q 397 637 272 637 z m 46 681 l 249 681 q 319 681 371 671 q 422 660 462 638 q 535 598 575 520 q 616 442 616 343 q 616 184 525 92 q 434 0 275 0 l 46 0 l 46 39 l 111 39 l 111 641 l 46 641 z"},"^":{"x_min":0,"x_max":1000,"ha":1000,"o":"m 456 714 l 543 714 l 797 438 l 752 438 l 499 651 l 245 438 l 201 438 z"},"0":{"x_min":0,"x_max":495,"ha":495,"o":"m 403 232 q 403 360 346 452 q 290 544 215 544 q 158 544 125 495 q 92 446 92 360 q 92 230 148 139 q 205 48 281 48 q 338 48 370 97 q 403 146 403 232 z m 248 606 q 340 606 398 520 q 457 435 457 296 q 457 157 398 72 q 340 -14 248 -14 q 156 -14 97 72 q 38 157 38 296 q 38 435 97 520 q 156 606 248 606 z"},"F":{"x_min":0,"x_max":514,"ha":514,"o":"m 46 681 l 451 681 l 502 566 l 475 548 q 438 596 395 617 q 352 637 284 637 l 187 637 l 187 436 l 411 436 l 411 491 l 448 491 l 448 316 l 411 316 l 411 392 l 187 392 l 187 39 l 252 39 l 252 0 l 46 0 l 46 39 l 111 39 l 111 641 l 46 641 z"},"`":{"x_min":0,"x_max":500,"ha":500,"o":"m 135 711 l 209 711 l 311 540 l 266 540 z"},"k":{"x_min":0,"x_max":532,"ha":532,"o":"m 167 396 l 167 212 q 189 206 208 203 q 228 200 248 200 q 324 200 366 235 q 408 270 408 331 q 408 381 375 412 q 343 444 291 444 q 263 444 233 432 q 203 421 167 396 z m 215 690 l 215 653 l 167 635 l 167 439 q 208 462 244 474 q 280 486 309 486 q 386 486 434 443 q 483 400 483 334 q 483 262 428 218 q 374 173 282 171 l 431 36 l 484 36 l 484 0 l 361 0 l 167 192 l 167 36 l 220 36 l 220 0 l 42 0 l 42 36 l 95 36 l 95 609 l 42 591 l 42 628 z"},"u":{"x_min":0,"x_max":576,"ha":576,"o":"m 159 481 l 167 481 l 167 128 q 167 87 190 65 q 213 44 258 44 q 293 44 332 62 q 370 79 405 111 l 405 422 l 352 405 l 352 442 l 469 481 l 477 481 l 477 36 l 530 36 l 530 0 l 405 0 l 405 67 q 354 26 312 6 q 269 -14 232 -14 q 170 -14 133 25 q 95 63 95 128 l 95 422 l 42 405 l 42 442 z"},"]":{"x_min":0,"x_max":296,"ha":296,"o":"m 23 680 l 197 680 l 197 -137 l 23 -137 l 23 -102 l 125 -102 l 125 646 l 23 646 z"},"U":{"x_min":0,"x_max":662,"ha":662,"o":"m 37 681 l 178 681 l 178 209 q 178 120 212 75 q 247 31 316 31 q 387 31 431 80 q 475 130 475 212 l 475 641 l 410 641 l 410 681 l 551 681 l 551 39 l 616 39 l 616 0 l 476 0 l 475 72 q 437 29 393 7 q 350 -14 299 -14 q 200 -14 151 38 q 102 90 102 194 l 102 641 l 37 641 z"},"o":{"x_min":0,"x_max":574,"ha":574,"o":"m 282 451 q 207 451 161 397 q 116 344 116 253 q 116 154 167 88 q 219 21 295 21 q 369 21 414 75 q 458 128 458 219 q 458 317 407 384 q 355 451 282 451 z m 287 486 q 395 486 466 415 q 537 345 537 236 q 537 127 466 57 q 395 -14 287 -14 q 179 -14 108 57 q 37 127 37 236 q 37 344 108 415 q 179 486 287 486 z"},"N":{"x_min":0,"x_max":676,"ha":676,"o":"m 46 681 l 168 681 l 521 122 l 521 641 l 456 641 l 456 681 l 630 681 l 630 641 l 565 641 l 565 0 l 512 0 l 155 564 l 155 39 l 220 39 l 220 0 l 46 0 l 46 39 l 111 39 l 111 641 l 46 641 z"},"+":{"x_min":0,"x_max":833,"ha":833,"o":"m 388 596 l 446 596 l 446 327 l 709 327 l 709 270 l 446 270 l 446 0 l 388 0 l 388 270 l 124 270 l 124 327 l 388 327 z"},"G":{"x_min":0,"x_max":718,"ha":718,"o":"m 566 343 l 378 343 l 378 387 l 592 387 q 616 387 626 389 q 636 390 644 394 l 657 366 q 648 358 645 351 q 642 344 642 329 l 642 140 q 642 119 643 104 q 645 89 647 76 q 565 26 504 6 q 443 -14 377 -14 q 226 -14 132 81 q 39 175 39 328 q 39 399 62 461 q 85 524 130 575 q 182 633 248 664 q 313 694 389 694 q 441 694 494 675 q 547 656 601 618 l 629 644 l 656 616 l 524 493 l 497 519 q 509 534 515 547 q 521 561 521 572 q 521 608 484 633 q 447 657 389 657 q 272 657 194 573 q 115 488 115 361 q 115 220 203 125 q 290 29 416 29 q 494 29 530 62 q 566 95 566 166 z"},"q":{"x_min":0,"x_max":528,"ha":528,"o":"m 377 324 q 377 388 351 419 q 324 450 269 450 q 199 450 156 392 q 112 333 112 238 q 112 151 154 95 q 197 39 262 39 q 292 39 320 50 q 347 62 377 86 z m 401 455 l 456 479 q 453 457 451 438 q 449 420 449 407 l 449 -161 l 502 -161 l 502 -197 l 312 -197 l 312 -161 l 377 -161 l 377 44 q 335 15 297 0 q 259 -14 224 -14 q 143 -14 90 50 q 37 113 37 213 q 37 328 107 407 q 178 486 279 486 q 310 486 341 478 q 373 470 401 455 z"},"d":{"x_min":0,"x_max":560,"ha":560,"o":"m 394 320 q 394 381 360 416 q 326 451 267 451 q 200 451 156 395 q 111 339 111 253 q 111 161 156 98 q 201 35 267 35 q 300 35 334 54 q 368 73 394 106 z m 514 690 l 514 653 l 465 635 l 465 36 l 519 36 l 519 0 l 401 0 l 394 56 q 355 21 316 3 q 276 -14 236 -14 q 149 -14 93 52 q 37 119 37 225 q 37 336 103 411 q 168 486 258 486 q 294 486 328 474 q 362 461 394 437 l 394 609 l 340 591 l 340 628 z"},"1":{"x_min":0,"x_max":495,"ha":495,"o":"m 271 593 l 292 593 q 291 584 291 575 q 290 566 290 552 l 290 535 l 290 35 l 345 35 l 345 0 l 165 0 l 165 35 l 220 35 l 220 512 l 156 486 l 156 519 q 204 534 235 563 q 267 593 271 593 z"},"5":{"x_min":0,"x_max":495,"ha":495,"o":"m 125 397 q 146 410 169 416 q 191 422 220 422 q 307 422 366 365 q 425 309 425 223 q 425 125 359 55 q 293 -14 199 -14 q 153 -14 112 5 q 71 23 36 60 l 86 113 q 116 78 154 58 q 192 39 233 39 q 291 39 326 75 q 361 111 361 171 q 361 249 311 308 q 261 367 197 367 q 173 367 154 361 q 134 355 118 342 l 75 366 l 154 593 l 373 593 l 381 616 l 419 616 l 394 528 l 171 528 z"}}}
